<?xml version="1.0" standalone="no"?>
<!DOCTYPE svg PUBLIC "-//W3C//DTD SVG 20010904//EN"
 "http://www.w3.org/TR/2001/REC-SVG-20010904/DTD/svg10.dtd">
<svg version="1.0" xmlns="http://www.w3.org/2000/svg"
 width="1024.000000pt" height="1024.000000pt" viewBox="0 0 1024.000000 1024.000000"
 preserveAspectRatio="xMidYMid meet">
<metadata>
Created by potrace 1.11, written by Peter Selinger 2001-2013
</metadata>
<g transform="translate(0.000000,1024.000000) scale(0.100000,-0.100000)"
fill="#000000" stroke="none">
<path d="M4187 10014 c-1 -1 -69 -5 -152 -8 -82 -4 -168 -9 -190 -11 -22 -2
-67 -7 -100 -10 -67 -6 -207 -23 -245 -29 -14 -3 -43 -7 -65 -10 -22 -4 -51
-8 -65 -11 -14 -2 -43 -7 -65 -10 -22 -3 -47 -7 -55 -10 -8 -2 -32 -6 -54 -10
-21 -3 -41 -7 -45 -9 -3 -2 -22 -7 -41 -10 -230 -37 -720 -191 -1050 -330
-112 -47 -477 -224 -530 -256 -8 -5 -73 -44 -145 -86 -280 -164 -619 -408
-821 -589 -6 -5 -42 -38 -80 -71 -87 -78 -174 -162 -174 -167 0 -3 773 -5
1717 -5 1503 0 1817 -3 1933 -17 403 -50 799 -209 1104 -443 58 -45 70 -54
126 -102 284 -244 526 -598 654 -958 32 -90 81 -276 95 -357 20 -120 23 -141
30 -225 9 -97 7 -1362 -2 -1400 -3 -14 -8 -43 -11 -65 -10 -85 -19 -133 -43
-230 -13 -55 -26 -107 -28 -115 -6 -28 -45 -139 -75 -216 -127 -319 -361 -653
-606 -864 -121 -104 -290 -230 -310 -230 -4 0 -15 -7 -24 -15 -25 -23 -215
-118 -315 -158 -221 -88 -457 -141 -680 -152 -353 -17 -334 -15 -453 -46 -108
-27 -187 -73 -267 -154 -58 -58 -75 -83 -99 -145 -25 -65 -29 -90 -29 -180 -1
-135 11 -209 54 -327 117 -318 351 -627 715 -943 272 -237 681 -473 1052 -607
120 -43 320 -103 393 -118 9 -2 59 -12 110 -23 52 -11 119 -23 149 -27 30 -3
62 -8 70 -10 13 -3 73 -9 205 -21 58 -5 380 -5 445 0 93 8 184 17 211 21 14 3
41 7 60 9 63 9 114 17 159 28 25 5 54 11 65 14 472 94 1064 374 1520 718 300
226 607 529 811 801 151 201 168 227 291 437 243 417 413 884 512 1398 19 99
24 127 36 218 3 20 7 51 10 67 4 28 12 99 21 190 25 259 25 760 0 915 -2 14
-7 56 -11 94 -4 38 -8 79 -10 90 -2 12 -6 43 -10 69 -4 27 -8 58 -11 70 -2 12
-6 39 -9 62 -38 264 -146 662 -281 1026 -64 175 -242 549 -344 724 -29 50 -62
106 -72 125 -73 128 -347 517 -441 625 -14 17 -70 82 -124 145 -98 115 -335
357 -450 460 -34 30 -77 69 -97 87 -20 18 -80 67 -133 110 -54 43 -100 80
-103 83 -3 3 -32 25 -65 49 -33 25 -76 56 -95 71 -163 123 -508 332 -750 454
-167 84 -477 222 -540 241 -14 4 -38 13 -55 20 -57 25 -390 134 -460 150 -11
3 -74 18 -140 35 -121 31 -376 85 -450 95 -22 4 -80 12 -130 20 -49 8 -117 16
-150 20 -33 3 -82 8 -110 11 -91 9 -138 13 -285 19 -130 7 -399 12 -403 9z"/>
<path d="M2110 5609 l0 -758 754 0 c573 0 755 3 758 12 3 10 2 1480 -1 1498
-1 4 -341 7 -756 6 l-755 0 0 -758z"/>
</g>
</svg>
